<svg width="832" height="667" viewBox="0 0 832 667" fill="none" xmlns="http://www.w3.org/2000/svg">
<path d="M149.735 356.893H131.609V664.971H149.735V356.893Z" fill="#FFBE21"/>
<path d="M149.743 361.127H131.609" stroke="#A15842" stroke-width="4" stroke-miterlimit="10"/>
<path d="M49.3604 603.152C51.1964 597.886 54.6252 593.322 59.1714 590.092C63.7176 586.863 69.156 585.127 74.7325 585.127C80.309 585.127 85.7474 586.863 90.2936 590.092C94.8398 593.322 98.2686 597.886 100.105 603.152C101.857 598.125 105.063 593.731 109.316 590.529C113.569 587.327 118.678 585.46 123.993 585.166C121.62 580.936 118.794 576.977 115.566 573.358L105.809 562.383C102.776 558.973 100.866 554.713 100.338 550.18C99.8097 545.647 100.689 541.062 102.857 537.046L111.138 521.658C108.813 523.998 95.3741 536.581 74.976 536.581C54.578 536.581 41.1391 523.998 38.8145 521.658H38.7776L47.0652 537.046C49.2236 541.07 50.0897 545.661 49.5457 550.195C49.0016 554.728 47.0738 558.984 44.0247 562.383L34.2758 573.313C31.0411 576.933 28.2079 580.892 25.8258 585.122C31.0843 585.488 36.1191 587.393 40.3037 590.598C44.4882 593.804 47.6377 598.17 49.3604 603.152Z" fill="#4756DF"/>
<path d="M125.477 618.701C119.899 618.702 114.46 620.439 109.913 623.671C105.367 626.903 101.939 631.47 100.105 636.739C98.2727 631.469 94.8452 626.901 90.2986 623.669C85.7519 620.436 80.3117 618.699 74.7331 618.699C69.1545 618.699 63.7143 620.436 59.1676 623.669C54.621 626.901 51.1935 631.469 49.3609 636.739C47.1419 630.372 42.6116 625.071 36.6683 621.887C30.725 618.704 23.8025 617.869 17.2731 619.55C17.648 636.582 24.5113 652.827 36.4608 664.969H113.352C125.278 652.853 132.139 636.649 132.54 619.653C130.239 619.022 127.864 618.702 125.477 618.701V618.701Z" fill="#4756DF"/>
<path d="M74.9168 536.611C95.3149 536.611 108.754 524.027 111.078 521.688H38.7552C41.0799 524.005 54.5187 536.611 74.9168 536.611Z" fill="#30242A"/>
<path d="M49.3613 636.74C51.1939 631.47 54.6214 626.902 59.168 623.669C63.7146 620.437 69.1549 618.7 74.7335 618.7C80.3121 618.7 85.7523 620.437 90.2989 623.669C94.8456 626.902 98.2731 631.47 100.106 636.74C102.343 630.305 106.942 624.961 112.97 621.789C118.999 618.617 126.007 617.854 132.577 619.654C132.88 607.596 129.92 595.68 124.009 585.166C118.694 585.46 113.585 587.326 109.332 590.528C105.079 593.731 101.873 598.124 100.12 603.152C98.2844 597.886 94.8556 593.321 90.3093 590.092C85.7631 586.862 80.3247 585.127 74.7482 585.127C69.1717 585.127 63.7333 586.862 59.1871 590.092C54.6409 593.321 51.2121 597.886 49.3761 603.152C47.6428 598.182 44.4887 593.83 40.305 590.637C36.1213 587.444 31.0922 585.549 25.8415 585.188C19.957 595.666 17.0025 607.536 17.2882 619.551C23.8177 617.87 30.7402 618.704 36.6835 621.888C42.6268 625.072 47.157 630.373 49.3761 636.74H49.3613Z" fill="#3EC1F3"/>
<path d="M80.2744 534.498C81.7504 525.465 88.4587 489.655 105.329 470.193" stroke="#30242A" stroke-width="4" stroke-miterlimit="10" stroke-linecap="round"/>
<path d="M72.4892 534.759C72.3785 524.5 71.3231 474.129 61.3079 444.076" stroke="#30242A" stroke-width="4" stroke-miterlimit="10" stroke-linecap="round"/>
<path d="M116.876 499.514C131.668 493.005 142.472 485.031 141.008 481.703C139.543 478.375 126.365 480.953 111.573 487.462C96.7812 493.971 85.9769 501.946 87.4412 505.274C88.9054 508.602 102.084 506.023 116.876 499.514Z" fill="#30242A"/>
<path d="M116.868 407.949C122.186 400.759 124.465 393.427 121.958 391.573C119.451 389.718 113.108 394.044 107.79 401.234C102.472 408.423 100.193 415.755 102.7 417.61C105.207 419.464 111.55 415.139 116.868 407.949Z" fill="#30242A"/>
<path d="M36.7834 504.629C56.0673 501.715 71.2821 496.592 70.7666 493.187C70.2511 489.781 54.2005 489.383 34.9166 492.296C15.6327 495.21 0.417892 500.333 0.933386 503.738C1.44888 507.144 17.4995 507.542 36.7834 504.629Z" fill="#30242A"/>
<path d="M23.3098 454.32V454.372C26.159 455.965 28.3079 458.568 29.3329 461.668C30.3579 464.767 30.1846 468.138 28.8471 471.116C27.5096 474.094 25.1051 476.463 22.1075 477.756C19.1099 479.049 15.7368 479.171 12.6532 478.1V478.144C28.8152 485.406 44.3204 485.96 47.2724 479.384C50.2243 472.808 39.4792 461.583 23.3098 454.32Z" fill="#FF7235"/>
<path d="M71.0939 401.683C67.6549 400.79 63.1826 405.993 59.9133 414.045C55.9798 404.266 50.2752 397.72 46.4302 398.989C42.5853 400.259 41.899 408.908 44.5631 419.108C37.1389 414.591 30.4527 413.071 28.2166 415.839C25.368 419.366 30.8586 428.518 40.482 436.29C43.2199 438.52 46.1657 440.482 49.2789 442.15C49.8095 440.042 50.8584 438.099 52.3303 436.5C53.8021 434.9 55.6503 433.694 57.7068 432.99C59.7634 432.286 61.9632 432.107 64.1065 432.469C66.2498 432.832 68.2686 433.724 69.9795 435.064C71.4219 431.96 72.5732 428.728 73.4186 425.411C76.5255 413.447 75.4849 402.82 71.0939 401.683Z" fill="#FF7235"/>
<path d="M146.118 456.01C145.056 452.615 138.273 451.582 129.713 453.058C135.927 444.548 138.465 436.245 135.358 433.655C132.251 431.064 124.539 435.057 117.292 442.711C117.204 434.016 114.953 427.537 111.425 427.101C106.931 426.548 102.06 436.053 100.555 448.32C100.109 451.826 99.9998 455.368 100.23 458.896C102.3 458.228 104.505 458.09 106.643 458.491C108.781 458.893 110.784 459.824 112.471 461.197C114.158 462.571 115.474 464.345 116.301 466.357C117.127 468.369 117.438 470.556 117.204 472.719C120.603 472.289 123.955 471.548 127.218 470.505C139.004 466.837 147.469 460.335 146.118 456.01Z" fill="#FF7235"/>
<path d="M112.57 461.271C110.882 459.863 108.866 458.905 106.708 458.486C104.551 458.066 102.322 458.199 100.23 458.872C100.651 464.71 102.127 469.205 104.348 470.836C106.422 472.755 111.219 473.397 117.19 472.696C117.423 470.558 117.123 468.396 116.317 466.402C115.51 464.409 114.223 462.646 112.57 461.271V461.271Z" fill="#30242A"/>
<path d="M57.84 432.946C55.7531 433.635 53.8741 434.84 52.3773 436.449C50.8806 438.058 49.8147 440.019 49.2787 442.15C54.445 444.881 59.0356 445.988 61.6187 444.984C64.3421 444.246 67.4197 440.504 69.9807 435.065C68.2891 433.737 66.2951 432.849 64.1767 432.479C62.0582 432.109 59.8812 432.27 57.84 432.946V432.946Z" fill="#30242A"/>
<path d="M24.7497 476.231C23.3619 475.457 22.3153 474.19 21.8172 472.681C21.3191 471.172 21.4058 469.531 22.0602 468.083C22.7146 466.635 23.889 465.485 25.3507 464.862C26.8124 464.239 28.4549 464.187 29.9529 464.717C29.7796 462.582 29.0829 460.522 27.9244 458.72C26.7659 456.918 25.1812 455.429 23.3105 454.385L12.6311 478.098C14.6496 478.803 16.8102 479.001 18.9232 478.675C21.0363 478.35 23.037 477.51 24.7497 476.231Z" fill="#F5EBDD"/>
<path d="M22.0322 468.09C21.3885 469.538 21.3103 471.175 21.813 472.677C22.3157 474.18 23.3628 475.44 24.7482 476.209C26.5221 474.89 27.9307 473.141 28.841 471.126C29.7514 469.112 30.1335 466.899 29.9513 464.696C28.4464 464.16 26.7947 464.212 25.3264 464.841C23.8581 465.47 22.6816 466.631 22.0322 468.09V468.09Z" fill="#4856DF"/>
<path d="M509.741 480.003H322.048L325.221 467.412H407.611L439.034 344.514C443.315 327.774 453.047 312.935 466.694 302.338C480.341 291.741 497.127 285.989 514.405 285.988C556.685 285.988 587.622 325.842 577.135 366.803L557.718 442.74C554.993 453.396 548.799 462.843 540.112 469.589C531.425 476.336 520.74 480 509.741 480.003Z" fill="#FFB7D5"/>
<path d="M323.502 596.312V609.641H443.123V596.312H323.502Z" fill="#A15842"/>
<path d="M462.827 657.812L431.713 472.602H334.904L303.79 657.812C303.643 658.692 303.69 659.595 303.927 660.456C304.164 661.317 304.586 662.116 305.164 662.797C305.741 663.479 306.46 664.026 307.27 664.401C308.081 664.777 308.963 664.971 309.856 664.97V664.97C311.259 664.969 312.62 664.488 313.713 663.608C314.805 662.727 315.564 661.5 315.864 660.129L356.615 472.602H410.031L450.768 660.129C451.067 661.5 451.825 662.729 452.918 663.609C454.011 664.49 455.372 664.97 456.776 664.97V664.97C457.667 664.969 458.548 664.773 459.357 664.397C460.165 664.02 460.882 663.473 461.458 662.792C462.034 662.11 462.455 661.312 462.691 660.452C462.927 659.592 462.974 658.691 462.827 657.812V657.812Z" fill="#A15842"/>
<path d="M422.599 596.312V609.641H542.22V596.312H422.599Z" fill="#FFBE21"/>
<path d="M561.925 657.812L530.781 472.602H434.008L402.895 657.812C402.748 658.692 402.795 659.595 403.032 660.456C403.269 661.317 403.691 662.116 404.269 662.797C404.846 663.479 405.565 664.026 406.375 664.401C407.186 664.777 408.068 664.971 408.961 664.97V664.97C410.364 664.97 411.724 664.49 412.815 663.609C413.907 662.728 414.664 661.5 414.961 660.129L455.698 472.602H509.121L549.858 660.129C550.157 661.502 550.917 662.731 552.011 663.612C553.105 664.493 554.468 664.972 555.873 664.97V664.97C556.765 664.969 557.646 664.773 558.454 664.397C559.263 664.02 559.98 663.473 560.556 662.792C561.131 662.11 561.552 661.312 561.788 660.452C562.025 659.592 562.071 658.691 561.925 657.812V657.812Z" fill="#FFBE21"/>
<path d="M464.148 442.741L476.015 396.326H397.367C381.944 396.327 366.961 401.461 354.778 410.919C342.596 420.378 333.908 433.622 330.085 448.564L322.048 480.005H416.164C427.164 480.003 437.851 476.34 446.539 469.593C455.227 462.846 461.423 453.399 464.148 442.741V442.741Z" fill="#FFB7D5"/>
<path d="M327.162 466.18H427.013" stroke="#A15842" stroke-width="4" stroke-linecap="round" stroke-linejoin="round"/>
<path d="M407.965 465.717L425.464 397.301" stroke="#A15842" stroke-width="4" stroke-linecap="round" stroke-linejoin="round"/>
<path d="M568.419 394.736H521.188" stroke="#A15842" stroke-width="4" stroke-linecap="round" stroke-linejoin="round"/>
<path d="M577.275 361.527H516.76" stroke="#A15842" stroke-width="4" stroke-linecap="round" stroke-linejoin="round"/>
<path d="M356.844 346.53C356.844 346.53 297.635 362.656 272.484 375.239C231.016 395.971 231.157 409.654 205.873 486.254C182.53 557.047 179.962 591.358 147.763 592.716C123.181 593.749 115.122 601.794 111.137 612.82L208.412 658.977C209.527 659.504 210.801 659.586 211.974 659.205C213.147 658.823 214.13 658.008 214.721 656.925V656.925C215.324 655.818 215.471 654.52 215.13 653.307C214.79 652.094 213.989 651.062 212.899 650.43L210.854 649.249C219.895 638.297 237.334 614.96 254.721 579.513L265.79 584.679C265.79 584.679 283.672 561.438 286.506 535.075C290.196 501.03 287.982 478.084 303.531 464.763L484.856 346.5L356.844 346.53Z" fill="#FF7235"/>
<path d="M138.207 598.185C140.133 594.178 150.835 569.764 156.99 572.716C164.998 576.553 144.214 601.064 144.214 601.064L138.207 598.185Z" fill="#30242A"/>
<path d="M111.13 613.168L208.405 659.318C209.531 659.855 210.821 659.935 212.005 659.542C213.189 659.148 214.175 658.311 214.756 657.207C215.336 656.102 215.466 654.816 215.119 653.617C214.771 652.419 213.973 651.401 212.892 650.779L210.847 649.598L211.054 649.347L144.192 617.781C145.194 615.005 145.896 612.13 146.288 609.205C156.295 610.939 176.545 612.807 176.649 604.459C176.759 596.681 154.642 599.802 146.561 602.002C146.387 599.012 145.806 596.06 144.834 593.227C122.539 594.762 114.953 602.585 111.13 613.168Z" fill="#30242A"/>
<path d="M272.484 375.241C267.828 377.566 263.702 379.802 260.005 382.046L254.33 400.224L276.174 384.835L296.314 400.895L288.89 378.88L311.701 368.429L294.071 366.215C286.72 368.838 279.514 371.851 272.484 375.241V375.241Z" fill="#FFB7D5"/>
<path d="M336.845 365.777L335.369 375.394L344.993 371.696L336.845 365.777Z" fill="#FFB7D5"/>
<path d="M281.34 413.883L267.282 432.385L247.297 422.769L259.134 442.747L240.633 458.29L264.315 455.331L272.462 482.719L280.602 455.331L306.506 447.928L281.34 437.566V413.883Z" fill="#FFB7D5"/>
<path d="M202.302 555.157L204.028 550.227L227.644 548.972L208.456 535.909L217.002 515.443L197.674 528.329L193.984 524.344C191.032 534.064 188.42 542.721 185.866 550.33H185.985C186.265 549.496 186.545 548.655 186.826 547.799L202.302 555.157Z" fill="#FFB7D5"/>
<path d="M202.301 555.159L186.804 547.83C186.523 548.686 186.243 549.528 185.962 550.362C176.597 578.259 168.066 592.208 147.779 593.064C146.782 593.064 145.823 593.16 144.878 593.227C145.85 596.06 146.431 599.012 146.605 602.002C154.723 599.788 176.804 596.681 176.693 604.46C176.575 612.807 156.339 610.939 146.332 609.205C145.934 612.131 145.223 615.006 144.214 617.781L211.076 649.347C220.168 638.276 237.459 615.058 254.714 579.905L202.301 555.159Z" fill="#EAA58B"/>
<path d="M261.356 499L259.142 518.986L238.419 518.248L256.182 531.577L249.54 555.26L267.319 539.71L283.296 550.367C283.739 548.955 284.145 547.526 284.514 546.079L278.389 530.824L287.879 520.425C288.034 518.492 288.182 516.587 288.322 514.735L271.747 517.503L261.356 499Z" fill="#FFB7D5"/>
<path d="M215.195 457.457C213.327 463.228 211.32 469.494 209.106 476.306L228.797 477.509L215.195 457.457Z" fill="#FFB7D5"/>
<path d="M284.72 637.758C285.03 633.33 285.997 606.687 292.802 607.167C301.658 607.787 291.362 638.223 291.362 638.223L284.72 637.758Z" fill="#30242A"/>
<path d="M448.621 347.615C448.621 347.615 374.608 361.343 333.9 378.362C292.801 395.551 293.2 426.076 300.594 508.994C307.236 583.226 319.103 619.271 294.69 630.371C272.3 640.556 264.521 653.324 265.584 665H375.803C376.424 665 377.039 664.878 377.613 664.64C378.187 664.402 378.709 664.054 379.148 663.614C379.587 663.175 379.936 662.653 380.174 662.08C380.411 661.506 380.534 660.89 380.534 660.269V660.269C380.534 659.014 380.035 657.811 379.148 656.924C378.261 656.037 377.058 655.538 375.803 655.538H373.943C377.419 644.165 382.46 621.965 383.154 585.226H396.821C396.821 585.226 403.847 552.752 396.083 523.792C387.965 493.451 380.541 488.27 376.106 467.546H442.429C493.077 467.546 530.988 420.695 519.97 371.262C516.531 355.815 511.542 347.645 511.542 347.645L448.621 347.615Z" fill="#FF7235"/>
<path d="M402.733 390.938L389.146 408.03L367.988 400.761L380.527 421.286L364.246 443.493L385.707 434.607L397.67 456.66L399.028 432.386L419.751 427.95L401.995 416.843L402.733 390.938Z" fill="#FFB7D5"/>
<path d="M373.169 522.883L385.714 543.408L369.434 565.615L390.895 556.759L398.851 571.423C400.017 560.028 400.592 543.171 396.873 526.986L394.334 530.182L373.169 522.883Z" fill="#FFB7D5"/>
<path d="M317.834 585.196L316.882 573.756L340.911 564.486L318.166 559.77L320.675 534.803L305.916 554.117L305.473 553.933C306.89 565.852 308.13 576.266 308.823 585.277V585.196H317.834Z" fill="#FFB7D5"/>
<path d="M375.803 655.508H373.943C377.419 644.135 382.46 621.935 383.154 585.195H308.801V585.262C308.86 586 308.912 586.738 308.963 587.476C308.963 587.542 308.963 587.616 308.963 587.683C310.506 610.746 307.989 624.237 294.661 630.297C272.27 640.482 264.492 653.25 265.555 664.925H375.803C377.058 664.925 378.261 664.427 379.148 663.54C380.035 662.652 380.534 661.449 380.534 660.194C380.534 658.94 380.035 657.736 379.148 656.849C378.261 655.962 377.058 655.464 375.803 655.464V655.508Z" fill="#EAA58B"/>
<path d="M474.488 349.527L440.488 352.538L444.031 366.207L422.282 377.809L449.374 381.433L458.54 401.736L467.964 380.709L495.52 376.355L471.587 364.03L474.488 349.527Z" fill="#FFB7D5"/>
<path d="M312.439 445.707L320.557 419.802L344.239 423.492L325.738 407.211L339.022 391.668L314.602 400.524L310.698 393.83C304.417 400.945 300.624 409.779 298.594 421.138L302.757 421.271L312.439 445.707Z" fill="#FFB7D5"/>
<path d="M375.804 364.441C370.808 365.829 365.833 367.283 360.977 368.781L380.542 382.066L375.804 364.441Z" fill="#FFB7D5"/>
<path d="M343.523 484.194L333.162 462.732L327.981 486.416L308.742 484.94L326.498 500.483L315.399 526.388L334.668 508.424L350.638 526.838L345.745 498.999L362.025 477.537L343.523 484.194Z" fill="#FFB7D5"/>
<path d="M299.591 646.851C309.377 644.15 328.476 637.198 325.022 629.603C321.804 622.518 303.133 634.769 296.764 640.224C295.157 637.274 293.103 634.59 290.676 632.268C271.355 642.106 264.573 654.017 265.584 664.97H375.803C377.058 664.97 378.261 664.471 379.148 663.584C380.035 662.697 380.534 661.494 380.534 660.239V660.239C380.534 658.984 380.035 657.781 379.148 656.894C378.261 656.007 377.058 655.508 375.803 655.508H301.34C301.063 652.569 300.477 649.667 299.591 646.851V646.851Z" fill="#30242A"/>
<path d="M375.804 469.176L356.748 468.91" stroke="#A15842" stroke-width="4" stroke-miterlimit="10" stroke-linecap="round"/>
<path d="M389.973 361.209C370.231 366.242 349.132 372.42 333.147 379.092C299.052 393.373 293.524 416.813 296.838 471.781" stroke="#A15842" stroke-width="4" stroke-miterlimit="10" stroke-linecap="round"/>
<path d="M640.507 356.893H622.381V664.971H640.507V356.893Z" fill="#FFBE21"/>
<path d="M640.507 361.127H622.381" stroke="#A15842" stroke-width="4" stroke-miterlimit="10"/>
<path d="M377.567 125.23C367.235 123.754 343.568 134.861 342.785 156.818C342.003 178.774 361.604 185.83 364.741 187.402L410.223 180.339L413.36 130.153L377.567 125.23Z" fill="#A15842"/>
<path d="M457.92 70.7038C477.443 70.7038 493.27 54.8762 493.27 35.3519C493.27 15.8276 477.443 0 457.92 0C438.397 0 422.57 15.8276 422.57 35.3519C422.57 54.8762 438.397 70.7038 457.92 70.7038Z" fill="#A15842"/>
<path d="M434.99 59.663C437.145 60.6594 418.998 17.595 409.736 24.3112C401.021 30.6509 424.046 54.6149 434.99 59.663Z" fill="#30242A"/>
<path d="M435.994 62.2979C437.972 64.6597 484.273 48.4598 477.868 39.1163C471.742 30.127 434.016 59.9288 435.994 62.2979Z" fill="#30242A"/>
<path d="M497.461 180.736C497.461 180.736 528.545 154.831 508.531 125.966C495.793 107.567 461.159 114.896 461.159 114.896C462.001 104.792 464.746 75.6842 442.857 59.6909C420.968 43.6977 393.198 52.1187 383.08 64.7391C372.962 77.3595 375.508 100.94 372.143 117.774C368.778 134.609 371.021 146.056 381.397 151.443C390.836 156.344 401.943 153.384 401.943 153.384L400.762 171.149C400.762 171.149 379.36 171.953 366.246 176.699C334.646 188.139 279.126 266.592 279.126 266.592C244.345 265.116 211.777 263.64 211.777 263.64L228.803 313.974C228.803 313.974 271.724 328.033 302.809 319.878C334.343 311.619 364.239 267.33 364.239 267.33L374.571 296.932L356.807 346.521H511.49L485.587 300.63C490.067 259.935 497.461 180.736 497.461 180.736Z" fill="#EAA58B"/>
<path d="M447.758 169.305L407.168 242.909L390.563 171.888C383.264 172.626 373.538 174.058 366.32 176.67C334.646 188.139 279.126 266.592 279.126 266.592C244.345 265.116 211.777 263.64 211.777 263.64L228.803 313.974C228.803 313.974 271.724 328.034 302.809 319.879C334.343 311.62 364.239 267.331 364.239 267.331L374.571 296.933L356.807 346.522H511.49L485.587 300.638C490.015 259.928 497.395 180.729 497.395 180.729C490.542 176.557 483.039 173.564 475.196 171.873C466.362 169.88 456.65 171.069 447.758 169.305Z" fill="#4756DF"/>
<path d="M237.555 341.348H365.73L336.586 249.3C335.73 246.587 334.031 244.218 331.736 242.537C329.442 240.855 326.671 239.949 323.827 239.949H215.504C213.399 239.948 211.324 240.443 209.447 241.395C207.569 242.347 205.943 243.728 204.7 245.426C203.456 247.125 202.631 249.093 202.292 251.17C201.952 253.247 202.107 255.376 202.744 257.382L226.832 333.503C227.555 335.78 228.984 337.767 230.912 339.178C232.84 340.588 235.167 341.349 237.555 341.348V341.348Z" fill="#30242A"/>
<path d="M256.655 281.588C260.057 276.939 275.488 289.22 276.625 290.231C277.215 289.22 285.252 276.946 291.141 281.588C296.255 285.618 285.016 303.619 282.027 308.209C281.902 308.348 281.748 308.459 281.577 308.536C281.406 308.612 281.221 308.651 281.034 308.651C280.847 308.651 280.662 308.612 280.491 308.536C280.32 308.459 280.167 308.348 280.042 308.209C274.588 303.619 253.703 285.618 256.655 281.588Z" fill="#A15842"/>
<path d="M275.353 284.704C276.641 284.303 276.69 280.782 275.462 276.839C274.234 272.897 272.195 270.027 270.907 270.428C269.619 270.829 269.57 274.35 270.797 278.292C272.025 282.235 274.065 285.105 275.353 284.704Z" fill="#A15842"/>
<path d="M440.156 330.987C440.527 332.177 440.613 333.439 440.407 334.669C440.202 335.899 439.71 337.064 438.972 338.069C438.234 339.074 437.27 339.892 436.158 340.457C435.046 341.021 433.816 341.317 432.569 341.319H237.555C235.166 341.32 232.839 340.56 230.911 339.149C228.983 337.739 227.555 335.751 226.832 333.474L226.035 330.957L440.156 330.987Z" fill="#30242A"/>
<path d="M671.738 341.348H100.377V359.85H671.738V341.348Z" fill="#FFBE21"/>
<path d="M557.711 442.741L569.578 396.326H500.354C484.933 396.327 469.95 401.461 457.769 410.92C445.587 420.378 436.901 433.623 433.079 448.564L425.035 480.005H509.72C520.721 480.004 531.409 476.341 540.098 469.594C548.787 462.847 554.984 453.4 557.711 442.741V442.741Z" fill="#FFB7D5"/>
<path d="M426.673 467.834L423.935 479.406" stroke="#A15842" stroke-width="4" stroke-linecap="round" stroke-linejoin="round"/>
<path d="M205.608 266.305C196.995 270.607 192.693 277.781 192.693 282.807C192.693 290.143 200.161 291.523 200.161 291.523C200.161 291.523 194.59 300.284 204.279 304.395C204.279 304.395 204.279 313.413 213.305 313.413C213.305 313.413 212.109 320.447 221.526 321.111C230.943 321.775 240.633 316.86 241.452 313.679C242.389 309.923 239.858 306.779 233.024 305.782C233.024 305.782 242.249 301.472 240.788 296.033C239.327 290.593 233.091 290.719 233.091 290.719C233.091 290.719 239.061 287.139 235.873 281.862C232.685 276.586 226.589 278.416 226.589 278.416C226.589 278.416 228.183 274.726 225.393 271.914C222.072 268.593 207.792 272.785 207.792 272.785L205.608 266.305Z" fill="#EAA58A"/>
<path d="M213.371 313.761C221.143 311.898 228.683 309.175 235.852 305.643" stroke="#A15842" stroke-width="4" stroke-miterlimit="10" stroke-linecap="round"/>
<path d="M204.257 304.351C215.032 301.397 225.319 296.889 234.795 290.971" stroke="#A15842" stroke-width="4" stroke-miterlimit="10" stroke-linecap="round"/>
<path d="M199.423 292.571C209.408 289.617 218.842 285.047 227.349 279.043" stroke="#A15842" stroke-width="4" stroke-miterlimit="10" stroke-linecap="round"/>
<path d="M508.568 125.967C495.83 107.567 461.196 114.896 461.196 114.896C462.038 104.792 464.783 75.6842 442.894 59.6909C421.005 43.6977 393.235 52.1187 383.117 64.7391C378.999 69.9053 376.984 76.8576 375.811 84.4446C382.527 85.5738 392.379 83.2638 392.379 83.2638C405.847 98.4157 417.913 100.822 417.913 100.822C427.337 91.3969 443.868 91.7069 446.555 105.988C449.344 120.815 425.662 127.479 425.662 127.479C425.662 127.479 423.448 154.123 435.256 163.747C438.88 166.619 443.165 168.54 447.721 169.333C456.577 171.097 466.325 169.909 475.226 171.887C483.068 173.578 490.572 176.571 497.424 180.743C500.128 178.361 502.599 175.727 504.804 172.876C512.568 163.031 521.852 145.155 508.568 125.967Z" fill="#A15842"/>
<path d="M406.431 77.8613C402.002 81.5515 396.836 83.7656 390.888 85.2417" stroke="#EAA58B" stroke-width="4" stroke-miterlimit="10" stroke-linecap="round"/>
<path d="M401.699 155.045C405.136 153.899 408.451 152.416 411.597 150.617" stroke="#A15842" stroke-width="4" stroke-miterlimit="10" stroke-linecap="round"/>
<path d="M426.569 112.594L433.3 108.387" stroke="#A15842" stroke-width="4" stroke-miterlimit="10" stroke-linecap="round"/>
<path d="M387.951 132.351C389.346 133.215 394.593 133.886 396.674 129.879" stroke="#A15842" stroke-width="4" stroke-miterlimit="10" stroke-linecap="round"/>
<path d="M401.662 113.413C403.056 113.413 404.187 112.283 404.187 110.889C404.187 109.495 403.056 108.365 401.662 108.365C400.268 108.365 399.138 109.495 399.138 110.889C399.138 112.283 400.268 113.413 401.662 113.413Z" fill="#30242A"/>
<path d="M380.741 110.07C382.135 110.07 383.265 108.94 383.265 107.546C383.265 106.152 382.135 105.021 380.741 105.021C379.347 105.021 378.217 106.152 378.217 107.546C378.217 108.94 379.347 110.07 380.741 110.07Z" fill="#30242A"/>
<path d="M387.848 117.295C387.346 118.882 386.91 120.609 387.198 121.184C387.594 121.914 388.194 122.512 388.925 122.904" stroke="#A15842" stroke-width="4" stroke-miterlimit="10" stroke-linecap="round"/>
<path d="M429.736 137.326C434.619 137.326 438.578 133.367 438.578 128.484C438.578 123.601 434.619 119.643 429.736 119.643C424.853 119.643 420.895 123.601 420.895 128.484C420.895 133.367 424.853 137.326 429.736 137.326Z" fill="#F5EBDD"/>
<path d="M387.204 108.966C388.733 101.104 384.236 93.6144 377.159 92.2373C370.081 90.8603 363.104 96.1173 361.574 103.979C360.045 111.841 364.542 119.331 371.62 120.708C378.697 122.085 385.674 116.828 387.204 108.966Z" stroke="#30242A" stroke-width="4" stroke-miterlimit="10" stroke-linecap="round"/>
<path d="M419.27 112.898C420.799 105.036 416.302 97.5461 409.224 96.169C402.147 94.7919 395.17 100.049 393.64 107.911C392.111 115.773 396.608 123.263 403.685 124.64C410.763 126.017 417.74 120.76 419.27 112.898Z" stroke="#30242A" stroke-width="4" stroke-miterlimit="10" stroke-linecap="round"/>
<path d="M387.81 107.777L392.91 108.324" stroke="#30242A" stroke-width="4" stroke-miterlimit="10" stroke-linecap="round"/>
<path d="M462.888 115.871L461.418 125.318" stroke="#30242A" stroke-width="4" stroke-miterlimit="10" stroke-linecap="round"/>
<path d="M356.106 248.09L363.251 268.88" stroke="#30242A" stroke-width="4" stroke-linecap="round" stroke-linejoin="round"/>
<path d="M393.848 295.459H375.065" stroke="#30242A" stroke-width="4" stroke-linecap="round" stroke-linejoin="round"/>
<path d="M408.651 242.172L414.57 271.036V297.68" stroke="#30242A" stroke-width="4" stroke-linecap="round" stroke-linejoin="round"/>
<path d="M369.287 176.029L380.526 201.462L367.206 199.986L414.57 271.037" stroke="#30242A" stroke-width="4" stroke-linecap="round" stroke-linejoin="round"/>
<path d="M478.797 173.002L459.72 199.985L477.484 198.501L412.349 256.23" stroke="#30242A" stroke-width="4" stroke-linecap="round" stroke-linejoin="round"/>
<path d="M488.717 263.478L474.525 243.654" stroke="#30242A" stroke-width="4" stroke-linecap="round" stroke-linejoin="round"/>
<path d="M505.136 336.545C497.41 333.969 483.543 328.995 475.181 323.998" stroke="#30242A" stroke-width="4" stroke-linecap="round" stroke-linejoin="round"/>
<path d="M292.005 152.9C300.022 152.9 306.521 146.4 306.521 138.382C306.521 130.365 300.022 123.865 292.005 123.865C283.987 123.865 277.488 130.365 277.488 138.382C277.488 146.4 283.987 152.9 292.005 152.9Z" fill="#FFB7D5"/>
<path d="M248.62 80.6085L240.168 70.4167C238.867 68.8479 236.541 68.6309 234.972 69.9319L234.79 70.0827C233.221 71.3838 233.004 73.7102 234.305 75.279L242.757 85.4709C244.058 87.0396 246.384 87.2567 247.953 85.9556L248.135 85.8048C249.704 84.5038 249.921 82.1773 248.62 80.6085Z" fill="#4756DF"/>
<path d="M263.821 92.9931L255.319 82.7344L102.503 209.455C101.17 210.561 100.332 212.151 100.171 213.876C100.011 215.6 100.541 217.318 101.647 218.651L101.817 218.858C102.364 219.517 103.035 220.063 103.793 220.463C104.551 220.863 105.38 221.11 106.233 221.189C107.087 221.269 107.947 221.179 108.766 220.926C109.585 220.673 110.345 220.261 111.005 219.714L158.782 180.081V319.149H172.118V169.011L263.821 92.9931Z" fill="#3EC1F3"/>
<path d="M239.194 95.9453L243.452 101.112C244.935 102.904 246.063 104.963 246.773 107.178" stroke="#4756DF" stroke-width="4" stroke-miterlimit="10"/>
<path d="M165.446 183.158C175.053 183.158 182.841 175.37 182.841 165.763C182.841 156.155 175.053 148.367 165.446 148.367C155.839 148.367 148.052 156.155 148.052 165.763C148.052 175.37 155.839 183.158 165.446 183.158Z" fill="#4756DF"/>
<path d="M165.447 172.449C169.14 172.449 172.133 169.456 172.133 165.763C172.133 162.07 169.14 159.076 165.447 159.076C161.754 159.076 158.76 162.07 158.76 165.763C158.76 169.456 161.754 172.449 165.447 172.449Z" fill="#3EC1F3"/>
<path d="M303.924 130.137L281.672 148.529" stroke="#A15842" stroke-width="4" stroke-miterlimit="10"/>
<path d="M275.097 91.1315C270.418 90.5817 266.131 88.2505 263.126 84.622L257.223 77.4852C255.136 74.9728 252.137 73.3914 248.886 73.0884C245.634 72.7853 242.395 73.7854 239.88 75.8689V75.8689C238.635 76.901 237.606 78.1681 236.851 79.598C236.097 81.0279 235.631 82.5924 235.481 84.2023C235.331 85.8122 235.499 87.4359 235.977 88.9807C236.454 90.5254 237.231 91.961 238.264 93.2054L244.167 100.364C247.159 103.982 248.646 108.611 248.322 113.295L246.846 134.875C246.115 145.434 248.795 155.948 254.492 164.869L256.381 167.821L327.177 109.095L324.638 106.711C316.933 99.4613 307.101 94.8793 296.594 93.6408L275.097 91.1315Z" fill="#3EC1F3"/>
<path d="M172.118 319.148H158.782L139.071 324.521C135.38 325.528 132.123 327.721 129.801 330.762C127.479 333.803 126.222 337.523 126.222 341.349H204.671C204.671 337.522 203.412 333.801 201.089 330.76C198.766 327.719 195.507 325.527 191.815 324.521L172.118 319.148Z" fill="#3EC1F3"/>
<path d="M313.746 98.6523L248.958 152.204" stroke="#4756DF" stroke-width="4" stroke-miterlimit="10" stroke-linecap="round"/>
<path d="M158.457 317.621H172.118" stroke="#4756DF" stroke-width="4" stroke-miterlimit="10" stroke-linecap="round"/>
<path d="M128.812 332.123H201.637" stroke="#4756DF" stroke-width="4" stroke-miterlimit="10" stroke-linecap="round"/>
<path d="M548.537 531.748C550.013 519.201 549.275 491.038 532.995 469.576C516.715 448.113 538.899 457.029 545.541 462.933C556.168 472.38 565.526 481.436 573.666 511.784L548.537 531.748Z" fill="#30242A"/>
<path d="M745.116 664.969H832V662.128C831.998 658.122 830.406 654.281 827.573 651.45C824.74 648.618 820.898 647.027 816.893 647.027H744.666L745.116 664.969Z" fill="#A15842"/>
<path d="M533.172 582.015L551.497 664.97H585.548V659.804C585.548 656.473 584.227 653.278 581.875 650.919C579.524 648.56 576.333 647.23 573.002 647.22V647.22C573.002 647.22 590.02 634.459 600.381 621.876C600.381 621.876 618.145 643.523 643.31 639.818L645.133 648.674C646.081 653.271 648.584 657.401 652.22 660.369C655.855 663.337 660.402 664.961 665.096 664.97H747.625C784.23 664.97 802.237 659.383 803.27 638.541C803.302 637.746 803.173 636.953 802.89 636.209C802.608 635.465 802.178 634.786 801.626 634.212C801.075 633.639 800.413 633.183 799.681 632.871C798.949 632.56 798.162 632.4 797.366 632.4H774.326C773.376 632.401 772.438 632.189 771.581 631.779C770.724 631.369 769.969 630.772 769.374 630.031L759.566 617.861C756.659 614.26 752.779 611.568 748.387 610.107C743.996 608.646 739.277 608.476 734.792 609.617L715.065 614.658C715.065 614.658 680.114 564.427 648.454 529.54C618.196 496.233 561.282 492.639 538.862 536.02C531.654 550.217 529.641 566.489 533.172 582.015V582.015Z" fill="#A15842"/>
<path d="M739.485 664.969V662.128C739.485 660.144 739.094 658.18 738.335 656.347C737.576 654.515 736.463 652.85 735.06 651.447C733.657 650.045 731.992 648.933 730.159 648.175C728.326 647.416 726.362 647.026 724.379 647.027H714.32" stroke="#30242A" stroke-width="4" stroke-miterlimit="10"/>
<path d="M601.754 622.465C606.921 616.317 624.552 593.682 623.29 571.54C621.94 547.85 607.747 535.273 607.747 535.273" stroke="#30242A" stroke-width="4" stroke-miterlimit="10" stroke-linecap="round"/>
<path d="M638.831 608.539C638.831 608.539 639.776 626.053 641.672 639.131" stroke="#30242A" stroke-width="4" stroke-miterlimit="10" stroke-linecap="round"/>
<path d="M567.784 657.391V664.232" stroke="#30242A" stroke-width="4" stroke-miterlimit="10" stroke-linecap="round"/>
<path d="M575.924 657.391V664.232" stroke="#30242A" stroke-width="4" stroke-miterlimit="10" stroke-linecap="round"/>
<path d="M723.205 657.391V664.232" stroke="#30242A" stroke-width="4" stroke-miterlimit="10" stroke-linecap="round"/>
<path d="M731.345 657.391V664.232" stroke="#30242A" stroke-width="4" stroke-miterlimit="10" stroke-linecap="round"/>
<path d="M753.175 637.405C755.014 637.405 756.504 635.915 756.504 634.077C756.504 632.238 755.014 630.748 753.175 630.748C751.337 630.748 749.847 632.238 749.847 634.077C749.847 635.915 751.337 637.405 753.175 637.405Z" fill="#30242A"/>
<path d="M735.014 609.551V609.463L715.036 614.629L734.763 609.588L735.014 609.551Z" fill="#30242A"/>
<path d="M685.848 647.361C680.062 650.314 671.885 656.092 672.564 664.845H704.697L711.449 654.196C712.553 652.454 714.079 651.019 715.885 650.024C717.691 649.029 719.719 648.507 721.781 648.505H723.929L734.939 609.773L734.777 609.604L715.05 614.644L696.165 638.837C693.385 642.393 689.865 645.302 685.848 647.361V647.361Z" fill="#30242A"/>
<path d="M638.92 547.621C638.92 547.621 629.983 578.56 658.845 590.243C673.48 596.147 685.634 591.667 694.07 585.814C681.325 568.84 664.461 547.23 648.447 529.576C644.432 525.158 639.92 521.218 635.001 517.834C630.632 523.783 625.85 538.499 638.92 547.621Z" fill="#EAA58B"/>
<path d="M565.194 570.06C571.939 570.06 577.408 564.591 577.408 557.845C577.408 551.099 571.939 545.631 565.194 545.631C558.448 545.631 552.98 551.099 552.98 557.845C552.98 564.591 558.448 570.06 565.194 570.06Z" fill="#EAA58B"/>
<path d="M797.396 632.4H792.968C792.724 633.635 792.756 634.909 793.063 636.129C793.369 637.35 793.941 638.488 794.739 639.462C795.537 640.435 796.54 641.22 797.677 641.76C798.814 642.3 800.056 642.582 801.315 642.585C801.835 642.585 802.354 642.536 802.865 642.438C803.09 641.149 803.236 639.848 803.3 638.541C803.332 637.746 803.203 636.953 802.921 636.209C802.638 635.465 802.208 634.786 801.657 634.212C801.105 633.639 800.444 633.183 799.711 632.871C798.979 632.56 798.192 632.4 797.396 632.4Z" fill="#30242A"/>
<path d="M814.975 657.391V664.062" stroke="#30242A" stroke-width="4" stroke-miterlimit="10" stroke-linecap="round"/>
<path d="M823.115 657.391V664.062" stroke="#30242A" stroke-width="4" stroke-miterlimit="10" stroke-linecap="round"/>
<path d="M770.311 664.084C788.407 662.261 799.196 657.36 803.115 646.932" stroke="#30242A" stroke-width="4" stroke-linecap="round" stroke-linejoin="round"/>
<path d="M475.262 275.782C466.155 274.967 456.998 274.865 447.876 275.48C434.828 276.55 417.286 279.967 410.238 283.377C403.19 286.786 376.202 298.824 383.471 302.861C390.113 306.551 404.046 301.001 404.046 301.001C404.046 301.001 390.143 313.784 387.751 319.134C385.36 324.485 393.264 327.489 393.264 327.489C395.345 336.626 404.659 332.699 404.659 332.699C410.526 345.18 442.223 318.138 442.223 318.138C449.764 318.922 457.379 318.601 464.827 317.186C464.827 317.186 468.842 319.437 475.285 322.566L475.262 275.782Z" fill="#EAA58A"/>
<path d="M554.449 338.388C613.658 310.261 527.83 205.173 497.461 180.736L480.443 249.573L501.904 279.175C492.502 277.552 483.513 276.437 475.262 275.78V322.565C494.052 331.701 533.534 348.351 554.449 338.388Z" fill="#4756DF"/>
<path d="M401.212 301.775C406.467 297.428 415.191 290.402 421.7 286.166" stroke="#A15842" stroke-width="4" stroke-miterlimit="10" stroke-linecap="round"/>
<path d="M428.872 296.551C413.751 306.345 399.972 319.43 393.153 326.279" stroke="#A15842" stroke-width="4" stroke-miterlimit="10" stroke-linecap="round"/>
<path d="M435.581 307.627C425.249 314.719 413.256 325.473 405.426 332.853" stroke="#A15842" stroke-width="4" stroke-miterlimit="10" stroke-linecap="round"/>
<path d="M613.215 303.651C614.334 303.653 615.407 304.098 616.198 304.89C616.989 305.681 617.435 306.754 617.437 307.873V308.5C617.435 309.619 616.989 310.692 616.198 311.483C615.407 312.274 614.334 312.719 613.215 312.721H591.467V303.651H613.215ZM613.215 297.747H586.36C586.254 297.747 586.15 297.768 586.053 297.808C585.956 297.849 585.868 297.908 585.793 297.983C585.719 298.058 585.661 298.146 585.621 298.244C585.582 298.341 585.562 298.446 585.563 298.551V317.851C585.563 318.062 585.647 318.265 585.796 318.414C585.946 318.564 586.148 318.648 586.36 318.648H613.215C614.547 318.648 615.865 318.385 617.095 317.875C618.325 317.365 619.442 316.617 620.383 315.674C621.323 314.732 622.069 313.613 622.576 312.382C623.084 311.151 623.343 309.832 623.34 308.5V307.85C623.34 305.165 622.274 302.589 620.375 300.69C618.476 298.791 615.901 297.725 613.215 297.725V297.747Z" fill="#3EC1F3"/>
<path d="M580.743 294.563C558.751 294.563 548.589 277.035 548.589 277.035L563.349 341.348H598.093L612.853 277.035C609.425 282.439 604.68 286.883 599.063 289.949C593.446 293.015 587.142 294.603 580.743 294.563Z" fill="#3EC1F3"/>
<path d="M580.743 294.563C587.15 294.611 593.463 293.026 599.088 289.96C604.713 286.893 609.466 282.446 612.897 277.035H548.589C548.589 277.035 558.751 294.563 580.743 294.563Z" fill="#30242A"/>
</svg>
