<svg width="40" height="41" viewBox="0 0 40 41" fill="none" xmlns="http://www.w3.org/2000/svg">
<path d="M21.8584 0C11.8381 0 3.71689 8.23954 3.71689 18.406C3.71689 22.763 5.20507 26.7605 7.69953 29.9097L0.669679 37.042C-0.223226 37.9479 -0.223226 39.4146 0.669679 40.3206C1.56258 41.2265 3.00824 41.2265 3.90114 40.3206L10.9877 33.1307C14.0207 35.4315 17.7908 36.8119 21.8584 36.8119C31.8788 36.8119 40 28.5724 40 18.406C40 8.23954 31.8788 0 21.8584 0ZM21.8584 32.3542C14.2758 32.3542 8.11055 26.0991 8.11055 18.406C8.11055 10.7128 14.2758 4.45769 21.8584 4.45769C29.441 4.45769 35.6063 10.7128 35.6063 18.406C35.6063 26.0991 29.441 32.3542 21.8584 32.3542Z" fill="#710273"/>
<path d="M22.3545 12.6541C21.4474 12.6541 20.7246 13.3874 20.7246 14.3077V18.9092C20.7246 19.8295 21.4474 20.5629 22.3545 20.5629C23.2616 20.5629 23.9844 19.8295 23.9844 18.9092V14.3077C23.9844 13.3874 23.2474 12.6541 22.3545 12.6541Z" fill="#710273"/>
<path d="M28.0237 12.6541C27.1166 12.6541 26.3938 13.3874 26.3938 14.3077V18.9092C26.3938 19.8295 27.1166 20.5629 28.0237 20.5629C28.9308 20.5629 29.6536 19.8295 29.6536 18.9092V14.3077C29.6536 13.3874 28.9166 12.6541 28.0237 12.6541Z" fill="#710273"/>
</svg>
